Coordinates
version=1
nRows=5
nColumns=40
inDegrees=yes

Units are S.I. units (second, meters, Newtons, ...)
If the header above contains a line with 'inDegrees', this indicates whether rotational values are in degrees (yes) or radians (no).

endheader
time	pelvis_tilt	pelvis_list	pelvis_rotation	pelvis_tx	pelvis_ty	pelvis_tz	hip_flexion_r	hip_adduction_r	hip_rotation_r	knee_angle_r	knee_angle_r_beta	ankle_angle_r	subtalar_angle_r	mtp_angle_r	hip_flexion_l	hip_adduction_l	hip_rotation_l	knee_angle_l	knee_angle_l_beta	ankle_angle_l	subtalar_angle_l	mtp_angle_l	lumbar_extension	lumbar_bending	lumbar_rotation	arm_flex_r	arm_add_r	arm_rot_r	elbow_flex_r	pro_sup_r	wrist_flex_r	wrist_dev_r	arm_flex_l	arm_add_l	arm_rot_l	elbow_flex_l	pro_sup_l	wrist_flex_l	wrist_dev_l
      7.32500000	    -46.81196444	     -4.15411267	      2.32577617	     -0.41025481	      0.81577975	      0.58783207	     74.70468992	    -12.58171018	    -11.27282570	     25.02325729	      0.43673823	     -0.64176945	      0.00000000	      0.00000000	     77.75302043	    -11.55236742	     -7.02629176	     26.35904313	      0.46005209	     -1.39440009	      0.00000000	      0.00000000	    -40.97901484	      0.84976304	     -4.08083932	     68.80052372	      1.52654873	      2.51424690	     11.72232428	     35.43932751	      0.00000000	      0.00000000	     70.60416992	     -6.07784114	     -6.46845944	     13.00034881	     31.43640288	      0.00000000	      0.00000000
      7.33000000	    -46.64115761	     -4.05993926	      2.22181262	     -0.40991254	      0.81656508	      0.58846659	     74.45454476	    -12.44313223	    -11.20149817	     24.87072005	      0.43407595	     -0.61699973	      0.00000000	      0.00000000	     77.39303402	    -11.67283090	     -7.24231319	     26.10668807	      0.45564766	     -1.46924780	      0.00000000	      0.00000000	    -40.99063639	      0.62780703	     -4.03363240	     68.52597869	      1.49158934	      2.83686863	     11.86544758	     35.19800688	      0.00000000	      0.00000000	     70.50540263	     -6.17004283	     -5.92175171	     12.92325716	     31.01360777	      0.00000000	      0.00000000
      7.33500000	    -46.35070489	     -4.15848208	      2.30407906	     -0.40945524	      0.81752817	      0.58865828	     74.00316045	    -12.45551655	    -11.46770139	     24.70180980	      0.43112791	     -0.69787399	      0.00000000	      0.00000000	     76.99338107	    -11.65255067	     -7.17260250	     25.88025358	      0.45169564	     -1.61399648	      0.00000000	      0.00000000	    -41.12971846	      0.71923928	     -4.00668985	     68.29837200	      1.37295016	      3.80602518	     11.95518831	     35.07301487	      0.00000000	      0.00000000	     70.28745922	     -6.24345982	     -5.41205487	     13.04714979	     30.88813114	      0.00000000	      0.00000000
      7.34000000	    -46.36170177	     -4.15926448	      2.22733023	     -0.40925508	      0.81804775	      0.58901340	     73.88955683	    -12.33074126	    -11.43926840	     24.46222749	      0.42694641	     -0.86192148	      0.00000000	      0.00000000	     76.87663003	    -11.72065662	     -7.17408955	     25.66252776	      0.44789560	     -1.74817048	      0.00000000	      0.00000000	    -40.91191271	      0.63569578	     -3.94115777	     67.91005100	      1.31907126	      3.85068844	     12.22549054	     35.17546874	      0.00000000	      0.00000000	     70.08991173	     -6.23961434	     -5.41001443	     13.00082874	     31.01545648	      0.00000000	      0.00000000
      7.34500000	    -46.23617055	     -4.26547003	      2.28335527	     -0.40895496	      0.81859902	      0.58926802	     73.65002382	    -12.32021556	    -11.68507247	     24.34810112	      0.42495453	     -0.95709038	      0.00000000	      0.00000000	     76.70734143	    -11.71588214	     -7.02861080	     25.53351941	      0.44564398	     -1.90240801	      0.00000000	      0.00000000	    -40.83529588	      0.73123986	     -3.91304746	     67.45560329	      1.29268920	      3.81692714	     12.61497162	     35.23654132	      0.00000000	      0.00000000	     69.83884928	     -6.30411507	     -5.15170101	     13.09073147	     31.07625910	      0.00000000	      0.00000000
